<mxfile host="drawio-plugin" modified="2024-08-19T10:41:04.467Z" agent="Mozilla/5.0 (Windows NT 10.0; Win64; x64) AppleWebKit/537.36 (KHTML, like Gecko) Chrome/122.0.0.0 Safari/537.36" etag="se28DXZx4rV8VUdIRww8" version="22.1.22" type="embed">
  <diagram name="Page-1" id="1y-vhHLkb0o45r0_0Ujg">
    <mxGraphModel dx="565" dy="799" grid="0" gridSize="10" guides="1" tooltips="1" connect="1" arrows="1" fold="1" page="1" pageScale="1" pageWidth="827" pageHeight="1169" background="#F7F7F7" math="0" shadow="0">
      <root>
        <mxCell id="0" />
        <mxCell id="1" parent="0" />
        <mxCell id="TnRur8zZifoRKJPTkDsW-1" value="Utilisateur" style="shape=umlLifeline;perimeter=lifelinePerimeter;whiteSpace=wrap;html=1;container=0;dropTarget=0;collapsible=0;recursiveResize=0;outlineConnect=0;portConstraint=eastwest;newEdgeStyle={&quot;edgeStyle&quot;:&quot;elbowEdgeStyle&quot;,&quot;elbow&quot;:&quot;vertical&quot;,&quot;curved&quot;:0,&quot;rounded&quot;:0};" parent="1" vertex="1">
          <mxGeometry x="110" y="80" width="100" height="900" as="geometry" />
        </mxCell>
        <mxCell id="TnRur8zZifoRKJPTkDsW-2" value="Server" style="shape=umlLifeline;perimeter=lifelinePerimeter;whiteSpace=wrap;html=1;container=0;dropTarget=0;collapsible=0;recursiveResize=0;outlineConnect=0;portConstraint=eastwest;newEdgeStyle={&quot;edgeStyle&quot;:&quot;elbowEdgeStyle&quot;,&quot;elbow&quot;:&quot;vertical&quot;,&quot;curved&quot;:0,&quot;rounded&quot;:0};" parent="1" vertex="1">
          <mxGeometry x="290" y="80" width="100" height="900" as="geometry" />
        </mxCell>
        <mxCell id="TnRur8zZifoRKJPTkDsW-3" value="" style="html=1;verticalAlign=bottom;endArrow=block;edgeStyle=elbowEdgeStyle;elbow=vertical;curved=0;rounded=0;" parent="1" edge="1">
          <mxGeometry relative="1" as="geometry">
            <mxPoint x="165" y="310.9999999999999" as="sourcePoint" />
            <Array as="points">
              <mxPoint x="250" y="311" />
            </Array>
            <mxPoint x="335" y="311" as="targetPoint" />
          </mxGeometry>
        </mxCell>
        <mxCell id="TnRur8zZifoRKJPTkDsW-4" value="Connection&amp;nbsp;" style="text;html=1;align=center;verticalAlign=middle;resizable=0;points=[];autosize=1;strokeColor=none;fillColor=none;" parent="1" vertex="1">
          <mxGeometry x="205" y="279" width="90" height="30" as="geometry" />
        </mxCell>
        <mxCell id="TnRur8zZifoRKJPTkDsW-5" value="Vérification" style="text;html=1;align=center;verticalAlign=middle;resizable=0;points=[];autosize=1;strokeColor=none;fillColor=none;" parent="1" vertex="1">
          <mxGeometry x="385" y="301" width="80" height="30" as="geometry" />
        </mxCell>
        <mxCell id="TnRur8zZifoRKJPTkDsW-6" value="SD: Gestion des tricks" style="shape=umlFrame;whiteSpace=wrap;html=1;pointerEvents=0;recursiveResize=0;container=1;collapsible=0;width=160;" parent="1" vertex="1">
          <mxGeometry width="740" height="980" as="geometry" />
        </mxCell>
        <mxCell id="TnRur8zZifoRKJPTkDsW-7" value="SGBD" style="shape=umlLifeline;perimeter=lifelinePerimeter;whiteSpace=wrap;html=1;container=0;dropTarget=0;collapsible=0;recursiveResize=0;outlineConnect=0;portConstraint=eastwest;newEdgeStyle={&quot;edgeStyle&quot;:&quot;elbowEdgeStyle&quot;,&quot;elbow&quot;:&quot;vertical&quot;,&quot;curved&quot;:0,&quot;rounded&quot;:0};" parent="TnRur8zZifoRKJPTkDsW-6" vertex="1">
          <mxGeometry x="470" y="80" width="100" height="900" as="geometry" />
        </mxCell>
        <mxCell id="TnRur8zZifoRKJPTkDsW-8" value="" style="html=1;verticalAlign=bottom;endArrow=block;edgeStyle=elbowEdgeStyle;elbow=vertical;curved=0;rounded=0;exitX=0.879;exitY=0.265;exitDx=0;exitDy=0;exitPerimeter=0;" parent="TnRur8zZifoRKJPTkDsW-6" edge="1">
          <mxGeometry relative="1" as="geometry">
            <mxPoint x="343.78999999999996" y="327.5" as="sourcePoint" />
            <Array as="points">
              <mxPoint x="422" y="331" />
            </Array>
            <mxPoint x="510" y="331" as="targetPoint" />
          </mxGeometry>
        </mxCell>
        <mxCell id="TnRur8zZifoRKJPTkDsW-9" value="Réponse SGBD" style="html=1;verticalAlign=bottom;endArrow=block;edgeStyle=elbowEdgeStyle;elbow=vertical;curved=0;rounded=0;exitX=0;exitY=0.75;exitDx=0;exitDy=0;" parent="TnRur8zZifoRKJPTkDsW-6" source="TnRur8zZifoRKJPTkDsW-10" edge="1">
          <mxGeometry relative="1" as="geometry">
            <mxPoint x="505" y="371" as="sourcePoint" />
            <Array as="points">
              <mxPoint x="437.5" y="371" />
            </Array>
            <mxPoint x="345" y="371" as="targetPoint" />
            <mxPoint as="offset" />
          </mxGeometry>
        </mxCell>
        <mxCell id="TnRur8zZifoRKJPTkDsW-10" value="" style="rounded=0;dashed=0;fillColor=#18141D;" parent="TnRur8zZifoRKJPTkDsW-6" vertex="1">
          <mxGeometry x="515" y="321" width="10" height="60" as="geometry" />
        </mxCell>
        <mxCell id="TnRur8zZifoRKJPTkDsW-11" value="" style="rounded=0;dashed=0;" parent="TnRur8zZifoRKJPTkDsW-6" vertex="1">
          <mxGeometry x="335" y="301" width="10" height="290" as="geometry" />
        </mxCell>
        <mxCell id="TnRur8zZifoRKJPTkDsW-12" value="alt" style="shape=umlFrame;whiteSpace=wrap;html=1;pointerEvents=0;recursiveResize=0;container=1;collapsible=0;width=60;height=30;" parent="TnRur8zZifoRKJPTkDsW-6" vertex="1">
          <mxGeometry x="70" y="381" width="530" height="180" as="geometry" />
        </mxCell>
        <mxCell id="TnRur8zZifoRKJPTkDsW-13" value="[&amp;nbsp; Informations incorrecte ]" style="text;html=1;align=center;verticalAlign=middle;resizable=0;points=[];autosize=1;strokeColor=none;fillColor=none;" parent="TnRur8zZifoRKJPTkDsW-12" vertex="1">
          <mxGeometry x="90" y="10" width="160" height="30" as="geometry" />
        </mxCell>
        <mxCell id="TnRur8zZifoRKJPTkDsW-14" value="" style="endArrow=none;dashed=1;html=1;rounded=0;exitX=0;exitY=0.594;exitDx=0;exitDy=0;exitPerimeter=0;entryX=0.998;entryY=0.594;entryDx=0;entryDy=0;entryPerimeter=0;" parent="TnRur8zZifoRKJPTkDsW-12" edge="1">
          <mxGeometry width="50" height="50" relative="1" as="geometry">
            <mxPoint x="1.06" y="89.49999999999997" as="sourcePoint" />
            <mxPoint x="530" y="89.49999999999997" as="targetPoint" />
          </mxGeometry>
        </mxCell>
        <mxCell id="TnRur8zZifoRKJPTkDsW-15" value="Message erreur" style="html=1;verticalAlign=bottom;endArrow=open;dashed=1;endSize=8;edgeStyle=elbowEdgeStyle;elbow=vertical;curved=0;rounded=0;entryX=1.155;entryY=0.851;entryDx=0;entryDy=0;entryPerimeter=0;" parent="TnRur8zZifoRKJPTkDsW-12" edge="1">
          <mxGeometry relative="1" as="geometry">
            <mxPoint x="90" y="59.99999999999994" as="targetPoint" />
            <Array as="points">
              <mxPoint x="170.95000000000005" y="60.43000000000001" />
            </Array>
            <mxPoint x="262.95000000000005" y="60.43000000000001" as="sourcePoint" />
          </mxGeometry>
        </mxCell>
        <mxCell id="TnRur8zZifoRKJPTkDsW-16" value="Connection" style="html=1;verticalAlign=bottom;endArrow=open;dashed=1;endSize=8;edgeStyle=elbowEdgeStyle;elbow=vertical;curved=0;rounded=0;entryX=1.155;entryY=0.851;entryDx=0;entryDy=0;entryPerimeter=0;" parent="TnRur8zZifoRKJPTkDsW-12" edge="1">
          <mxGeometry relative="1" as="geometry">
            <mxPoint x="90" y="139.99999999999994" as="targetPoint" />
            <Array as="points">
              <mxPoint x="170.95000000000005" y="140.43" />
            </Array>
            <mxPoint x="262.95000000000005" y="140.43" as="sourcePoint" />
          </mxGeometry>
        </mxCell>
        <mxCell id="TnRur8zZifoRKJPTkDsW-17" value="[&amp;nbsp; Informations correcte ]" style="text;html=1;align=center;verticalAlign=middle;resizable=0;points=[];autosize=1;strokeColor=none;fillColor=none;" parent="TnRur8zZifoRKJPTkDsW-12" vertex="1">
          <mxGeometry x="95" y="90" width="150" height="30" as="geometry" />
        </mxCell>
        <mxCell id="TnRur8zZifoRKJPTkDsW-25" value="enregistrement" style="html=1;verticalAlign=bottom;endArrow=block;edgeStyle=elbowEdgeStyle;elbow=vertical;curved=0;rounded=0;" parent="TnRur8zZifoRKJPTkDsW-6" edge="1">
          <mxGeometry relative="1" as="geometry">
            <mxPoint x="340" y="630" as="sourcePoint" />
            <Array as="points">
              <mxPoint x="450" y="630" />
            </Array>
            <mxPoint x="510" y="630" as="targetPoint" />
            <mxPoint as="offset" />
          </mxGeometry>
        </mxCell>
        <mxCell id="TnRur8zZifoRKJPTkDsW-26" value="" style="rounded=0;dashed=0;fillColor=#18141D;" parent="TnRur8zZifoRKJPTkDsW-6" vertex="1">
          <mxGeometry x="515" y="620" width="10" height="60" as="geometry" />
        </mxCell>
        <mxCell id="TnRur8zZifoRKJPTkDsW-27" value="Réponse SGBD" style="html=1;verticalAlign=bottom;endArrow=block;elbow=vertical;rounded=0;exitX=0;exitY=0.75;exitDx=0;exitDy=0;" parent="TnRur8zZifoRKJPTkDsW-6" edge="1">
          <mxGeometry relative="1" as="geometry">
            <mxPoint x="510" y="660" as="sourcePoint" />
            <mxPoint x="350" y="660" as="targetPoint" />
            <mxPoint as="offset" />
          </mxGeometry>
        </mxCell>
        <mxCell id="TnRur8zZifoRKJPTkDsW-28" value="" style="rounded=0;dashed=0;fillColor=#18141D;" parent="TnRur8zZifoRKJPTkDsW-6" vertex="1">
          <mxGeometry x="335" y="600" width="10" height="80" as="geometry" />
        </mxCell>
        <mxCell id="TnRur8zZifoRKJPTkDsW-29" value="Création d&#39;un Tricks" style="html=1;verticalAlign=bottom;endArrow=block;edgeStyle=elbowEdgeStyle;elbow=horizontal;curved=0;rounded=0;" parent="TnRur8zZifoRKJPTkDsW-6" edge="1">
          <mxGeometry x="-0.0556" relative="1" as="geometry">
            <mxPoint x="165" y="610" as="sourcePoint" />
            <Array as="points">
              <mxPoint x="275.5" y="610" />
            </Array>
            <mxPoint x="330" y="610" as="targetPoint" />
            <mxPoint as="offset" />
          </mxGeometry>
        </mxCell>
        <mxCell id="TnRur8zZifoRKJPTkDsW-30" value="Tricks créé" style="html=1;verticalAlign=bottom;endArrow=block;elbow=vertical;rounded=0;exitX=0;exitY=0.75;exitDx=0;exitDy=0;entryX=1.1;entryY=0.65;entryDx=0;entryDy=0;entryPerimeter=0;" parent="TnRur8zZifoRKJPTkDsW-6" edge="1">
          <mxGeometry relative="1" as="geometry">
            <mxPoint x="335" y="671" as="sourcePoint" />
            <mxPoint x="171" y="670" as="targetPoint" />
            <mxPoint as="offset" />
          </mxGeometry>
        </mxCell>
        <mxCell id="TnRur8zZifoRKJPTkDsW-31" value="" style="rounded=0;dashed=0;fillColor=#18141D;" parent="TnRur8zZifoRKJPTkDsW-6" vertex="1">
          <mxGeometry x="156" y="600" width="10" height="80" as="geometry" />
        </mxCell>
        <mxCell id="TnRur8zZifoRKJPTkDsW-32" value="enregistrement" style="html=1;verticalAlign=bottom;endArrow=block;edgeStyle=elbowEdgeStyle;elbow=vertical;curved=0;rounded=0;" parent="TnRur8zZifoRKJPTkDsW-6" edge="1">
          <mxGeometry relative="1" as="geometry">
            <mxPoint x="339.5" y="740" as="sourcePoint" />
            <Array as="points">
              <mxPoint x="449.5" y="740" />
            </Array>
            <mxPoint x="509.5" y="740" as="targetPoint" />
            <mxPoint as="offset" />
          </mxGeometry>
        </mxCell>
        <mxCell id="TnRur8zZifoRKJPTkDsW-33" value="" style="rounded=0;dashed=0;fillColor=#18141D;" parent="TnRur8zZifoRKJPTkDsW-6" vertex="1">
          <mxGeometry x="514.5" y="730" width="10" height="60" as="geometry" />
        </mxCell>
        <mxCell id="TnRur8zZifoRKJPTkDsW-34" value="Réponse SGBD" style="html=1;verticalAlign=bottom;endArrow=block;elbow=vertical;rounded=0;exitX=0;exitY=0.75;exitDx=0;exitDy=0;" parent="TnRur8zZifoRKJPTkDsW-6" edge="1">
          <mxGeometry relative="1" as="geometry">
            <mxPoint x="509.5" y="770" as="sourcePoint" />
            <mxPoint x="349.5" y="770" as="targetPoint" />
            <mxPoint as="offset" />
          </mxGeometry>
        </mxCell>
        <mxCell id="TnRur8zZifoRKJPTkDsW-35" value="" style="rounded=0;dashed=0;fillColor=#18141D;" parent="TnRur8zZifoRKJPTkDsW-6" vertex="1">
          <mxGeometry x="334.5" y="710" width="10" height="80" as="geometry" />
        </mxCell>
        <mxCell id="TnRur8zZifoRKJPTkDsW-36" value="Modification d&#39;un tricks&amp;nbsp;" style="html=1;verticalAlign=bottom;endArrow=block;edgeStyle=elbowEdgeStyle;elbow=vertical;curved=0;rounded=0;" parent="TnRur8zZifoRKJPTkDsW-6" edge="1">
          <mxGeometry x="0.1212" y="8" relative="1" as="geometry">
            <mxPoint x="164.5" y="720" as="sourcePoint" />
            <Array as="points">
              <mxPoint x="275" y="720" />
            </Array>
            <mxPoint x="329.5" y="720" as="targetPoint" />
            <mxPoint x="1" as="offset" />
          </mxGeometry>
        </mxCell>
        <mxCell id="TnRur8zZifoRKJPTkDsW-37" value="Tricks&amp;nbsp;&amp;nbsp;modifié" style="html=1;verticalAlign=bottom;endArrow=block;elbow=vertical;rounded=0;exitX=0;exitY=0.75;exitDx=0;exitDy=0;entryX=1.1;entryY=0.65;entryDx=0;entryDy=0;entryPerimeter=0;" parent="TnRur8zZifoRKJPTkDsW-6" edge="1">
          <mxGeometry relative="1" as="geometry">
            <mxPoint x="334.5" y="781" as="sourcePoint" />
            <mxPoint x="170.5" y="780" as="targetPoint" />
            <mxPoint as="offset" />
          </mxGeometry>
        </mxCell>
        <mxCell id="TnRur8zZifoRKJPTkDsW-38" value="" style="rounded=0;dashed=0;fillColor=#18141D;" parent="TnRur8zZifoRKJPTkDsW-6" vertex="1">
          <mxGeometry x="155.5" y="710" width="10" height="80" as="geometry" />
        </mxCell>
        <mxCell id="2Z180BbdBAs7MTk9DU_B-8" value="Récupére les tricks existant" style="html=1;verticalAlign=bottom;endArrow=block;edgeStyle=elbowEdgeStyle;elbow=vertical;curved=0;rounded=0;" parent="TnRur8zZifoRKJPTkDsW-6" edge="1">
          <mxGeometry relative="1" as="geometry">
            <mxPoint x="340" y="185" as="sourcePoint" />
            <Array as="points">
              <mxPoint x="450" y="185" />
            </Array>
            <mxPoint x="510" y="185" as="targetPoint" />
            <mxPoint as="offset" />
          </mxGeometry>
        </mxCell>
        <mxCell id="2Z180BbdBAs7MTk9DU_B-9" value="" style="rounded=0;dashed=0;fillColor=#18141D;" parent="TnRur8zZifoRKJPTkDsW-6" vertex="1">
          <mxGeometry x="515" y="175" width="10" height="60" as="geometry" />
        </mxCell>
        <mxCell id="2Z180BbdBAs7MTk9DU_B-10" value="Réponse SGBD" style="html=1;verticalAlign=bottom;endArrow=block;elbow=vertical;rounded=0;exitX=0;exitY=0.75;exitDx=0;exitDy=0;" parent="TnRur8zZifoRKJPTkDsW-6" edge="1">
          <mxGeometry relative="1" as="geometry">
            <mxPoint x="510" y="215" as="sourcePoint" />
            <mxPoint x="350" y="215" as="targetPoint" />
            <mxPoint as="offset" />
          </mxGeometry>
        </mxCell>
        <mxCell id="2Z180BbdBAs7MTk9DU_B-11" value="" style="rounded=0;dashed=0;fillColor=#18141D;" parent="TnRur8zZifoRKJPTkDsW-6" vertex="1">
          <mxGeometry x="335" y="155" width="10" height="80" as="geometry" />
        </mxCell>
        <mxCell id="2Z180BbdBAs7MTk9DU_B-12" value="Accès à la page&lt;br&gt;des tricks" style="html=1;verticalAlign=bottom;endArrow=block;edgeStyle=elbowEdgeStyle;elbow=vertical;curved=0;rounded=0;" parent="TnRur8zZifoRKJPTkDsW-6" edge="1">
          <mxGeometry x="-0.0545" relative="1" as="geometry">
            <mxPoint x="165" y="165" as="sourcePoint" />
            <Array as="points">
              <mxPoint x="275.5" y="165" />
            </Array>
            <mxPoint x="330" y="165" as="targetPoint" />
            <mxPoint as="offset" />
          </mxGeometry>
        </mxCell>
        <mxCell id="2Z180BbdBAs7MTk9DU_B-13" value="Tricks existant" style="html=1;verticalAlign=bottom;endArrow=block;elbow=vertical;rounded=0;exitX=0;exitY=0.75;exitDx=0;exitDy=0;entryX=1.1;entryY=0.65;entryDx=0;entryDy=0;entryPerimeter=0;" parent="TnRur8zZifoRKJPTkDsW-6" edge="1">
          <mxGeometry relative="1" as="geometry">
            <mxPoint x="335" y="226" as="sourcePoint" />
            <mxPoint x="171" y="225" as="targetPoint" />
            <mxPoint as="offset" />
          </mxGeometry>
        </mxCell>
        <mxCell id="2Z180BbdBAs7MTk9DU_B-14" value="" style="rounded=0;dashed=0;fillColor=#18141D;" parent="TnRur8zZifoRKJPTkDsW-6" vertex="1">
          <mxGeometry x="156" y="155" width="10" height="80" as="geometry" />
        </mxCell>
        <mxCell id="TnRur8zZifoRKJPTkDsW-39" value="Effacer le tricks" style="html=1;verticalAlign=bottom;endArrow=block;edgeStyle=elbowEdgeStyle;elbow=horizontal;curved=0;rounded=0;" parent="1" edge="1">
          <mxGeometry relative="1" as="geometry">
            <mxPoint x="339.5" y="850" as="sourcePoint" />
            <Array as="points">
              <mxPoint x="449.5" y="850" />
            </Array>
            <mxPoint x="509.5" y="850" as="targetPoint" />
            <mxPoint as="offset" />
          </mxGeometry>
        </mxCell>
        <mxCell id="TnRur8zZifoRKJPTkDsW-40" value="" style="rounded=0;dashed=0;fillColor=#18141D;" parent="1" vertex="1">
          <mxGeometry x="514.5" y="840" width="10" height="60" as="geometry" />
        </mxCell>
        <mxCell id="TnRur8zZifoRKJPTkDsW-41" value="Réponse SGBD" style="html=1;verticalAlign=bottom;endArrow=block;elbow=vertical;rounded=0;exitX=0;exitY=0.75;exitDx=0;exitDy=0;" parent="1" edge="1">
          <mxGeometry relative="1" as="geometry">
            <mxPoint x="509.5" y="880" as="sourcePoint" />
            <mxPoint x="349.5" y="880" as="targetPoint" />
            <mxPoint as="offset" />
          </mxGeometry>
        </mxCell>
        <mxCell id="TnRur8zZifoRKJPTkDsW-42" value="" style="rounded=0;dashed=0;fillColor=#18141D;" parent="1" vertex="1">
          <mxGeometry x="334.5" y="820" width="10" height="80" as="geometry" />
        </mxCell>
        <mxCell id="TnRur8zZifoRKJPTkDsW-43" value="Suppression d&#39;un tricks" style="html=1;verticalAlign=bottom;endArrow=block;edgeStyle=elbowEdgeStyle;elbow=vertical;curved=0;rounded=0;" parent="1" edge="1">
          <mxGeometry x="-0.0545" relative="1" as="geometry">
            <mxPoint x="164.5" y="830" as="sourcePoint" />
            <Array as="points">
              <mxPoint x="275" y="830" />
            </Array>
            <mxPoint x="329.5" y="830" as="targetPoint" />
            <mxPoint as="offset" />
          </mxGeometry>
        </mxCell>
        <mxCell id="TnRur8zZifoRKJPTkDsW-44" value="Tricks&amp;nbsp;&amp;nbsp;supprimé" style="html=1;verticalAlign=bottom;endArrow=block;elbow=vertical;rounded=0;exitX=0;exitY=0.75;exitDx=0;exitDy=0;entryX=1.1;entryY=0.65;entryDx=0;entryDy=0;entryPerimeter=0;" parent="1" edge="1">
          <mxGeometry relative="1" as="geometry">
            <mxPoint x="334.5" y="891" as="sourcePoint" />
            <mxPoint x="170.5" y="890" as="targetPoint" />
            <mxPoint as="offset" />
          </mxGeometry>
        </mxCell>
        <mxCell id="TnRur8zZifoRKJPTkDsW-45" value="" style="rounded=0;dashed=0;fillColor=#18141D;" parent="1" vertex="1">
          <mxGeometry x="155.5" y="820" width="10" height="80" as="geometry" />
        </mxCell>
      </root>
    </mxGraphModel>
  </diagram>
</mxfile>
